# xmcd
#
# Track frame offsets: 
#        225
#        3865
#        19840
#        37800
#        41050
#        62745
#        83327
#        120732
#        134790
#        139795
#        160802
#        191682
#        206812
#        221630
#        238167
#        257915
#
# Disc length: 3641 seconds
#
# Revision: 6
# Processed by: cddbd v1.5.2PL0 Copyright (c) Steve Scherf et al.
# Submitted via: ExactAudioCopy v1.0b3
#
DISCID=e50e3610
DTITLE=Blue Rodeo - Diamond Mine
DYEAR=1989
DGENRE=Rock
TTITLE0=Swells
TTITLE1=God and Country
TTITLE2=How Long
TTITLE3=Blues Piano
TTITLE4=Love and Understanding
TTITLE5=Girl of Mine
TTITLE6=Diamond Mine
TTITLE7=Now and Forever
TTITLE8=Percussive Piano
TTITLE9=House of Dreams
TTITLE10=Nice Try
TTITLE11=Fall In Line
TTITLE12=One Day
TTITLE13=Florida
TTITLE14=Fuse
TTITLE15=The Ballad of the Dime Store Greaser and the Blonde Mona Lisa
EXTD=YEAR: 1988
EXTT0=
EXTT1=
EXTT2=
EXTT3=
EXTT4=
EXTT5=
EXTT6=
EXTT7=
EXTT8=
EXTT9=
EXTT10=
EXTT11=
EXTT12=
EXTT13=
EXTT14=
EXTT15=
PLAYORDER=
